<svg width="142" height="95" viewBox="0 0 142 95" fill="none" xmlns="http://www.w3.org/2000/svg">
<path d="M50.0625 94.875C38.9375 94.875 24.375 90.6875 9.5 90.6875C6.3125 90.6875 3.125 90.875 0 91.3125C2.625 86.125 4.6875 60.1875 4.6875 37.125C4.6875 20.375 3.625 5.125 0.9375 0.375H31.8125C23.5 9.875 19.9375 26.6875 19.9375 43.0625C19.9375 60.0625 23.8125 76.6875 30.3125 84.3125C34.4375 89.125 39.375 91.125 43.8125 91.125C50.6875 91.125 56.4375 86.4375 56.4375 80C56.4375 75.875 54.0625 71 47.9375 66.25C43.8125 63 39.4375 60.75 34.875 57.25C28.9375 52.5 26.1875 47 26.1875 42C26.1875 34.0625 33.0625 27.5 44.875 27.5C47.9375 27.5 51.375 27.9375 55.125 28.9375C50.8125 34.375 49.1875 39.5625 49.1875 44.5C49.1875 60.6875 67.3125 73.875 67.3125 84.0625C67.3125 86.9375 65.875 89.5625 62.3125 91.9375C59 94.0625 54.8125 94.875 50.0625 94.875ZM70.5 91.4375C72.875 86.6875 75.4375 58.75 75.4375 35.125C75.4375 18.875 74.1875 4.6875 70.8125 1.5L74.6875 1.5625C84 1.5625 93 0.3125 102.312 0.0625L104.188 0C129.25 0 141.188 22.1875 141.188 44.625C141.188 54 139.062 63.4375 135 71.3125C130 81 117.938 90.9375 107.312 90.9375C103.125 90.9375 99.1875 89.375 95.9375 85.6875C95.9375 88.125 96.4375 90.125 97.875 91.375C93.4375 90.9375 89.125 90.6875 84.8125 90.6875C79.9375 90.6875 75.1875 91 70.5 91.4375ZM102.688 86.0625C104.625 86.0625 106.875 84.875 109.062 82.8125C117.625 74.6875 121.438 60.1875 121.438 45.625C121.438 26.25 114.562 6.8125 102.812 2.875C102.312 2.6875 101.75 2.625 101.25 2.625C97.3125 2.625 94.4375 8.1875 94.4375 23L95.3125 69.4375C95.5 81.1875 98.625 86.0625 102.688 86.0625Z" fill="white"/>
</svg>
