<svg width="895" height="110" viewBox="0 0 895 110" fill="none" xmlns="http://www.w3.org/2000/svg">
<path d="M50.0625 98.75C38.9375 98.75 24.375 94.5625 9.5 94.5625C6.3125 94.5625 3.125 94.75 0 95.1875C2.625 90 4.6875 64.0625 4.6875 41C4.6875 24.25 3.625 9 0.9375 4.25H31.8125C23.5 13.75 19.9375 30.5625 19.9375 46.9375C19.9375 63.9375 23.8125 80.5625 30.3125 88.1875C34.4375 93 39.375 95 43.8125 95C50.6875 95 56.4375 90.3125 56.4375 83.875C56.4375 79.75 54.0625 74.875 47.9375 70.125C43.8125 66.875 39.4375 64.625 34.875 61.125C28.9375 56.375 26.1875 50.875 26.1875 45.875C26.1875 37.9375 33.0625 31.375 44.875 31.375C47.9375 31.375 51.375 31.8125 55.125 32.8125C50.8125 38.25 49.1875 43.4375 49.1875 48.375C49.1875 64.5625 67.3125 77.75 67.3125 87.9375C67.3125 90.8125 65.875 93.4375 62.3125 95.8125C59 97.9375 54.8125 98.75 50.0625 98.75ZM72.8125 109.438C67.75 109.438 63.1875 107.125 60.75 102.375C80.5 102.375 82.5 32.625 100.938 14.3125C99.1875 9.1875 97.375 5.5 95.3125 4.25C111.688 4.25 120.438 5.6875 124.625 14.5625C131.25 28.5 132 69.75 141.875 95.375H131.438C123.625 95.375 118.875 92.3125 116.375 86.6875C109.938 71.9375 101.25 71 94.125 63.0625C94.6875 66.0625 95.1875 68.8125 95.625 71.375C96.125 74.375 96.375 77.25 96.375 79.9375C96.375 99.25 83.5 109.438 72.8125 109.438ZM112.312 71.3125C110.438 60.125 106.938 35.25 102.375 19C95.0625 28.1875 92.9375 38.625 92.875 48.3125C92.875 62.0625 104.312 64.1875 112.312 71.3125ZM189.125 95.3125C191.5 90.5625 194.062 62.625 194.062 39C194.062 22.75 192.812 8.5625 189.438 5.375L193.312 5.4375C202.625 5.4375 211.625 4.1875 220.938 3.9375L222.812 3.875C247.875 3.875 259.812 26.0625 259.812 48.5C259.812 57.875 257.688 67.3125 253.625 75.1875C248.625 84.875 236.562 94.8125 225.938 94.8125C221.75 94.8125 217.812 93.25 214.562 89.5625C214.562 92 215.062 94 216.5 95.25C212.062 94.8125 207.75 94.5625 203.438 94.5625C198.562 94.5625 193.812 94.875 189.125 95.3125ZM221.312 89.9375C223.25 89.9375 225.5 88.75 227.688 86.6875C236.25 78.5625 240.062 64.0625 240.062 49.5C240.062 30.125 233.188 10.6875 221.438 6.75C220.938 6.5625 220.375 6.5 219.875 6.5C215.938 6.5 213.062 12.0625 213.062 26.875L213.938 73.3125C214.125 85.0625 217.25 89.9375 221.312 89.9375ZM307.562 95.5625C286 95.5625 264.5 80.75 264.5 51.1875C264.5 37.5625 270 22.3125 280.5 16.6875C284.25 14.6875 287.812 13.8125 291.25 13.8125C303.438 13.8125 312.625 25.0625 312.625 35.75C312.625 43.8125 307.312 51.5625 293.938 53.8125C294.438 52.125 294.625 50.3125 294.625 48.4375C294.625 36.75 286.562 22.125 282.125 22.125C280.5 22.125 279.375 24.1875 279.375 29.1875C279.375 31.9375 279.688 35.625 280.5 40.375C284.375 62.9375 299.25 89.6875 318.188 89.6875C327.812 89.6875 335.438 81.875 335.438 67C335.438 61.5625 334.438 55.1875 332.062 47.875C326.062 29.125 313.562 11.4375 293.188 11.4375C290.75 11.4375 288.188 11.6875 285.562 12.25C292.938 5.4375 301.312 2.4375 309.5 2.4375C330.562 2.4375 350.562 22.4375 350.562 51.1875C350.562 80.75 329.062 95.5625 307.562 95.5625ZM385.125 96.5625C374.562 96.5625 362.5 92.625 357.312 83.125C355.375 79.6875 354.562 76.375 354.562 73.25C354.562 63.625 362.438 56.3125 371.625 56.3125C374.375 56.3125 377.25 56.9375 380.062 58.4375C378.062 62.5 377.188 66.625 377.188 70.5625C377.188 82.3125 384.5 90.875 391.688 90.875C398.625 90.875 405.375 84.125 405.375 76.375C405.375 71.0625 402.25 65.1875 393.875 60.6875C385.938 56.375 376.125 53 368.625 49.4375C357.688 44.375 353.125 37.125 353.125 29.9375C353.125 16.5625 368.938 3.0625 388.938 3.0625C389.75 3.0625 390.625 3.0625 391.438 3.125C405.5 3.9375 419.562 13.6875 419.562 25.25C419.562 30.25 416.875 35.625 410.312 40.75C400.438 24.9375 383 19.375 371.688 19.375C365.25 19.375 360.75 21.1875 360.75 23.875C360.75 27.125 367.25 31.75 384.5 36.1875C402.875 40.9375 419.938 49.0625 419.938 65.875C419.938 81.625 405.875 96.5625 385.125 96.5625ZM463.562 95.4375C461.062 95.4375 458.438 95.125 455.938 94.5C435.062 89.375 423.125 70.0625 423.125 50.5C423.125 48.3125 423.312 46.125 423.625 43.9375C425.812 28.1875 437.875 22 437.875 9.3125C437.875 6.75 437.375 3.9375 436.188 0.75C439.125 3.25 454.625 6.875 467.312 6.875C469.25 6.875 471.062 6.8125 472.812 6.625C472.812 6.625 482.688 5.9375 487.75 0.6875C489.5 3.25 490.25 6.125 490.25 9.0625C490.25 18.1875 482.312 27.375 469.688 27.375C465 27.375 459.75 26.125 454 23.1875C450.188 21.1875 446.688 19.75 443.875 19.75C439.312 19.75 436.25 24.0625 436.25 33.375C436.25 41.4375 439 51.625 444.375 59.8125C443.438 57 442.938 54.1875 442.938 51.5C442.938 44 446.938 37.9375 456.5 37.9375C457.562 37.9375 458.688 38 459.875 38.125C464.875 38.8125 470.062 40.9375 474.938 40.9375C478.562 40.9375 482.125 39.75 485.312 35.875C486.125 39.0625 486.562 41.75 486.562 44.0625C486.562 51.4375 482.562 54.75 476.75 54.75C471.375 54.75 464.438 51.875 457.688 46.75C454.812 44.5625 452.562 43.6875 450.812 43.6875C447.875 43.6875 446.438 46.375 446.438 50.1875C446.438 53.125 447.25 56.6875 448.875 60.1875C453.375 70.1875 460.5 74.375 468.812 74.375C474.25 74.375 480.25 72.5 486.312 69.25C486.812 71.4375 487.062 73.4375 487.062 75.375C487.062 88.4375 475.75 95.4375 463.562 95.4375ZM562.625 95.375L554 95.3125L536.625 95.375C540.562 84.5625 542.062 68.0625 542.062 51.9375C542.062 31.5625 539.688 11.9375 537 5.3125C539.562 5.5 542 5.625 544.438 5.625C554.5 5.625 563.688 3.9375 573.375 3.9375C584.312 3.9375 601.812 8.6875 601.812 21.1875C601.812 24.1875 600.75 27.6875 598.25 31.6875C585 52.3125 561.5 66.5625 561.5 87.4375C561.5 90 561.875 92.625 562.625 95.375ZM560.062 77.5C560.062 59.6875 580.062 50.1875 580.062 19.3125C580.062 10.3125 577.375 6.5 574 6.5H573.938C570.062 6.5 565.312 11.4375 562.625 19.25C559.875 27.375 559.062 38.875 559.062 50.625C559.062 59.9375 559.562 69.375 560.062 77.5ZM630.375 95.375H601.875C606 81.5625 608.062 64.875 608.062 48.3125C608.062 32.75 606.312 17.3125 602.875 4.25H629.438C626 17.3125 624.188 32.8125 624.188 48.375C624.188 64.875 626.25 81.5 630.375 95.375ZM633.188 96.5625C646.875 78.25 652.5 19.875 691.312 18.75C703.938 18.375 709 13.625 709 9.5C709 6.125 705.75 3.1875 700.562 3.1875C695.562 3.1875 688.875 5.875 681.5 13.5C671.562 23.8125 661.062 28.375 652.938 28.375C644.688 28.375 639 23.625 639 15.3125C639 11.125 640.438 6 643.812 0.0625C644.938 5 648.75 6.625 654.062 6.625C663.938 6.625 682.75 0 696.562 0C709.938 0 715.562 4.75 715.562 10.1875C715.562 15.5 710.125 21.375 701.188 23.75C681.625 28.9375 670 50.125 670 67.375C670 78.1875 674.562 87.5 684.562 90.4375C686.688 91.0625 690.562 91.4375 694.75 91.4375C703.25 91.4375 713.25 89.8125 713.25 85.25C713.25 83.625 712 81.6875 709 79.25C705.25 76.3125 701.062 74.1875 697 70.8125C692.188 66.875 690 62.1875 690 57.8125C690 49.125 698.375 41.375 711.625 41.375C714.5 41.375 717.562 41.6875 720.812 42.5C714.5 49.375 712.25 55.5 712.25 60.875C712.25 69.9375 718.5 76.9375 722.438 82.4375C724.5 85.25 725.312 87.5 725.312 89.3125C725.312 95.6875 714.562 96.375 706.875 96.375C690 96.375 668 92.25 652.062 92.25C643.75 92.25 636.938 93.3125 633.188 96.5625ZM727.562 96.5625C741.25 78.25 746.875 19.875 785.688 18.75C798.312 18.375 803.375 13.625 803.375 9.5C803.375 6.125 800.125 3.1875 794.938 3.1875C789.938 3.1875 783.25 5.875 775.875 13.5C765.938 23.8125 755.438 28.375 747.312 28.375C739.062 28.375 733.375 23.625 733.375 15.3125C733.375 11.125 734.812 6 738.188 0.0625C739.312 5 743.125 6.625 748.438 6.625C758.312 6.625 777.125 0 790.938 0C804.312 0 809.938 4.75 809.938 10.1875C809.938 15.5 804.5 21.375 795.562 23.75C776 28.9375 764.375 50.125 764.375 67.375C764.375 78.1875 768.938 87.5 778.938 90.4375C781.062 91.0625 784.938 91.4375 789.125 91.4375C797.625 91.4375 807.625 89.8125 807.625 85.25C807.625 83.625 806.375 81.6875 803.375 79.25C799.625 76.3125 795.438 74.1875 791.375 70.8125C786.562 66.875 784.375 62.1875 784.375 57.8125C784.375 49.125 792.75 41.375 806 41.375C808.875 41.375 811.938 41.6875 815.188 42.5C808.875 49.375 806.625 55.5 806.625 60.875C806.625 69.9375 812.875 76.9375 816.812 82.4375C818.875 85.25 819.688 87.5 819.688 89.3125C819.688 95.6875 808.938 96.375 801.25 96.375C784.375 96.375 762.375 92.25 746.438 92.25C738.125 92.25 731.312 93.3125 727.562 96.5625ZM825.188 109.438C820.125 109.438 815.562 107.125 813.125 102.375C832.875 102.375 834.875 32.625 853.312 14.3125C851.562 9.1875 849.75 5.5 847.688 4.25C864.062 4.25 872.812 5.6875 877 14.5625C883.625 28.5 884.375 69.75 894.25 95.375H883.812C876 95.375 871.25 92.3125 868.75 86.6875C862.312 71.9375 853.625 71 846.5 63.0625C847.062 66.0625 847.562 68.8125 848 71.375C848.5 74.375 848.75 77.25 848.75 79.9375C848.75 99.25 835.875 109.438 825.188 109.438ZM864.688 71.3125C862.812 60.125 859.312 35.25 854.75 19C847.438 28.1875 845.312 38.625 845.25 48.3125C845.25 62.0625 856.688 64.1875 864.688 71.3125Z" fill="white"/>
</svg>
