<svg width="940" height="217" viewBox="0 0 940 217" fill="none" xmlns="http://www.w3.org/2000/svg">
<path d="M71.0625 137.438C59.9375 137.438 45.375 133.25 30.5 133.25C27.3125 133.25 24.125 133.438 21 133.875C23.625 128.688 25.6875 102.75 25.6875 79.6875C25.6875 62.9375 24.625 47.6875 21.9375 42.9375H52.8125C44.5 52.4375 40.9375 69.25 40.9375 85.625C40.9375 102.625 44.8125 119.25 51.3125 126.875C55.4375 131.688 60.375 133.688 64.8125 133.688C71.6875 133.688 77.4375 129 77.4375 122.562C77.4375 118.438 75.0625 113.562 68.9375 108.812C64.8125 105.562 60.4375 103.312 55.875 99.8125C49.9375 95.0625 47.1875 89.5625 47.1875 84.5625C47.1875 76.625 54.0625 70.0625 65.875 70.0625C68.9375 70.0625 72.375 70.5 76.125 71.5C71.8125 76.9375 70.1875 82.125 70.1875 87.0625C70.1875 103.25 88.3125 116.438 88.3125 126.625C88.3125 129.5 86.875 132.125 83.3125 134.5C80 136.625 75.8125 137.438 71.0625 137.438ZM93.8125 148.125C88.75 148.125 84.1875 145.812 81.75 141.062C101.5 141.062 103.5 71.3125 121.938 53C120.188 47.875 118.375 44.1875 116.312 42.9375C132.688 42.9375 141.438 44.375 145.625 53.25C152.25 67.1875 153 108.438 162.875 134.062H152.438C144.625 134.062 139.875 131 137.375 125.375C130.938 110.625 122.25 109.688 115.125 101.75C115.688 104.75 116.188 107.5 116.625 110.062C117.125 113.062 117.375 115.938 117.375 118.625C117.375 137.938 104.5 148.125 93.8125 148.125ZM133.312 110C131.438 98.8125 127.938 73.9375 123.375 57.6875C116.062 66.875 113.938 77.3125 113.875 87C113.875 100.75 125.312 102.875 133.312 110ZM210.125 134C212.5 129.25 215.062 101.312 215.062 77.6875C215.062 61.4375 213.812 47.25 210.438 44.0625L214.312 44.125C223.625 44.125 232.625 42.875 241.938 42.625L243.812 42.5625C268.875 42.5625 280.812 64.75 280.812 87.1875C280.812 96.5625 278.688 106 274.625 113.875C269.625 123.562 257.562 133.5 246.938 133.5C242.75 133.5 238.812 131.938 235.562 128.25C235.562 130.688 236.062 132.688 237.5 133.938C233.062 133.5 228.75 133.25 224.438 133.25C219.562 133.25 214.812 133.562 210.125 134ZM242.312 128.625C244.25 128.625 246.5 127.438 248.688 125.375C257.25 117.25 261.062 102.75 261.062 88.1875C261.062 68.8125 254.188 49.375 242.438 45.4375C241.938 45.25 241.375 45.1875 240.875 45.1875C236.938 45.1875 234.062 50.75 234.062 65.5625L234.938 112C235.125 123.75 238.25 128.625 242.312 128.625ZM328.562 134.25C307 134.25 285.5 119.438 285.5 89.875C285.5 76.25 291 61 301.5 55.375C305.25 53.375 308.812 52.5 312.25 52.5C324.438 52.5 333.625 63.75 333.625 74.4375C333.625 82.5 328.312 90.25 314.938 92.5C315.438 90.8125 315.625 89 315.625 87.125C315.625 75.4375 307.562 60.8125 303.125 60.8125C301.5 60.8125 300.375 62.875 300.375 67.875C300.375 70.625 300.688 74.3125 301.5 79.0625C305.375 101.625 320.25 128.375 339.188 128.375C348.812 128.375 356.438 120.562 356.438 105.688C356.438 100.25 355.438 93.875 353.062 86.5625C347.062 67.8125 334.562 50.125 314.188 50.125C311.75 50.125 309.188 50.375 306.562 50.9375C313.938 44.125 322.312 41.125 330.5 41.125C351.562 41.125 371.562 61.125 371.562 89.875C371.562 119.438 350.062 134.25 328.562 134.25ZM406.125 135.25C395.562 135.25 383.5 131.312 378.312 121.812C376.375 118.375 375.562 115.062 375.562 111.938C375.562 102.312 383.438 95 392.625 95C395.375 95 398.25 95.625 401.062 97.125C399.062 101.188 398.188 105.312 398.188 109.25C398.188 121 405.5 129.562 412.688 129.562C419.625 129.562 426.375 122.812 426.375 115.062C426.375 109.75 423.25 103.875 414.875 99.375C406.938 95.0625 397.125 91.6875 389.625 88.125C378.688 83.0625 374.125 75.8125 374.125 68.625C374.125 55.25 389.938 41.75 409.938 41.75C410.75 41.75 411.625 41.75 412.438 41.8125C426.5 42.625 440.562 52.375 440.562 63.9375C440.562 68.9375 437.875 74.3125 431.312 79.4375C421.438 63.625 404 58.0625 392.688 58.0625C386.25 58.0625 381.75 59.875 381.75 62.5625C381.75 65.8125 388.25 70.4375 405.5 74.875C423.875 79.625 440.938 87.75 440.938 104.562C440.938 120.312 426.875 135.25 406.125 135.25ZM484.562 134.125C482.062 134.125 479.438 133.812 476.938 133.188C456.062 128.062 444.125 108.75 444.125 89.1875C444.125 87 444.312 84.8125 444.625 82.625C446.812 66.875 458.875 60.6875 458.875 48C458.875 45.4375 458.375 42.625 457.188 39.4375C460.125 41.9375 475.625 45.5625 488.312 45.5625C490.25 45.5625 492.062 45.5 493.812 45.3125C493.812 45.3125 503.688 44.625 508.75 39.375C510.5 41.9375 511.25 44.8125 511.25 47.75C511.25 56.875 503.312 66.0625 490.688 66.0625C486 66.0625 480.75 64.8125 475 61.875C471.188 59.875 467.688 58.4375 464.875 58.4375C460.312 58.4375 457.25 62.75 457.25 72.0625C457.25 80.125 460 90.3125 465.375 98.5C464.438 95.6875 463.938 92.875 463.938 90.1875C463.938 82.6875 467.938 76.625 477.5 76.625C478.562 76.625 479.688 76.6875 480.875 76.8125C485.875 77.5 491.062 79.625 495.938 79.625C499.562 79.625 503.125 78.4375 506.312 74.5625C507.125 77.75 507.562 80.4375 507.562 82.75C507.562 90.125 503.562 93.4375 497.75 93.4375C492.375 93.4375 485.438 90.5625 478.688 85.4375C475.812 83.25 473.562 82.375 471.812 82.375C468.875 82.375 467.438 85.0625 467.438 88.875C467.438 91.8125 468.25 95.375 469.875 98.875C474.375 108.875 481.5 113.062 489.812 113.062C495.25 113.062 501.25 111.188 507.312 107.938C507.812 110.125 508.062 112.125 508.062 114.062C508.062 127.125 496.75 134.125 484.562 134.125ZM583.625 134.062L575 134L557.625 134.062C561.562 123.25 563.062 106.75 563.062 90.625C563.062 70.25 560.688 50.625 558 44C560.562 44.1875 563 44.3125 565.438 44.3125C575.5 44.3125 584.688 42.625 594.375 42.625C605.312 42.625 622.812 47.375 622.812 59.875C622.812 62.875 621.75 66.375 619.25 70.375C606 91 582.5 105.25 582.5 126.125C582.5 128.688 582.875 131.312 583.625 134.062ZM581.062 116.188C581.062 98.375 601.062 88.875 601.062 58C601.062 49 598.375 45.1875 595 45.1875H594.938C591.062 45.1875 586.312 50.125 583.625 57.9375C580.875 66.0625 580.062 77.5625 580.062 89.3125C580.062 98.625 580.562 108.062 581.062 116.188ZM651.375 134.062H622.875C627 120.25 629.062 103.562 629.062 87C629.062 71.4375 627.312 56 623.875 42.9375H650.438C647 56 645.188 71.5 645.188 87.0625C645.188 103.562 647.25 120.188 651.375 134.062ZM654.188 135.25C667.875 116.938 673.5 58.5625 712.312 57.4375C724.938 57.0625 730 52.3125 730 48.1875C730 44.8125 726.75 41.875 721.562 41.875C716.562 41.875 709.875 44.5625 702.5 52.1875C692.562 62.5 682.062 67.0625 673.938 67.0625C665.688 67.0625 660 62.3125 660 54C660 49.8125 661.438 44.6875 664.812 38.75C665.938 43.6875 669.75 45.3125 675.062 45.3125C684.938 45.3125 703.75 38.6875 717.562 38.6875C730.938 38.6875 736.562 43.4375 736.562 48.875C736.562 54.1875 731.125 60.0625 722.188 62.4375C702.625 67.625 691 88.8125 691 106.062C691 116.875 695.562 126.188 705.562 129.125C707.688 129.75 711.562 130.125 715.75 130.125C724.25 130.125 734.25 128.5 734.25 123.938C734.25 122.312 733 120.375 730 117.938C726.25 115 722.062 112.875 718 109.5C713.188 105.562 711 100.875 711 96.5C711 87.8125 719.375 80.0625 732.625 80.0625C735.5 80.0625 738.562 80.375 741.812 81.1875C735.5 88.0625 733.25 94.1875 733.25 99.5625C733.25 108.625 739.5 115.625 743.438 121.125C745.5 123.938 746.312 126.188 746.312 128C746.312 134.375 735.562 135.062 727.875 135.062C711 135.062 689 130.938 673.062 130.938C664.75 130.938 657.938 132 654.188 135.25ZM748.562 135.25C762.25 116.938 767.875 58.5625 806.688 57.4375C819.312 57.0625 824.375 52.3125 824.375 48.1875C824.375 44.8125 821.125 41.875 815.938 41.875C810.938 41.875 804.25 44.5625 796.875 52.1875C786.938 62.5 776.438 67.0625 768.312 67.0625C760.062 67.0625 754.375 62.3125 754.375 54C754.375 49.8125 755.812 44.6875 759.188 38.75C760.312 43.6875 764.125 45.3125 769.438 45.3125C779.312 45.3125 798.125 38.6875 811.938 38.6875C825.312 38.6875 830.938 43.4375 830.938 48.875C830.938 54.1875 825.5 60.0625 816.562 62.4375C797 67.625 785.375 88.8125 785.375 106.062C785.375 116.875 789.938 126.188 799.938 129.125C802.062 129.75 805.938 130.125 810.125 130.125C818.625 130.125 828.625 128.5 828.625 123.938C828.625 122.312 827.375 120.375 824.375 117.938C820.625 115 816.438 112.875 812.375 109.5C807.562 105.562 805.375 100.875 805.375 96.5C805.375 87.8125 813.75 80.0625 827 80.0625C829.875 80.0625 832.938 80.375 836.188 81.1875C829.875 88.0625 827.625 94.1875 827.625 99.5625C827.625 108.625 833.875 115.625 837.812 121.125C839.875 123.938 840.688 126.188 840.688 128C840.688 134.375 829.938 135.062 822.25 135.062C805.375 135.062 783.375 130.938 767.438 130.938C759.125 130.938 752.312 132 748.562 135.25ZM846.188 148.125C841.125 148.125 836.562 145.812 834.125 141.062C853.875 141.062 855.875 71.3125 874.312 53C872.562 47.875 870.75 44.1875 868.688 42.9375C885.062 42.9375 893.812 44.375 898 53.25C904.625 67.1875 905.375 108.438 915.25 134.062H904.812C897 134.062 892.25 131 889.75 125.375C883.312 110.625 874.625 109.688 867.5 101.75C868.062 104.75 868.562 107.5 869 110.062C869.5 113.062 869.75 115.938 869.75 118.625C869.75 137.938 856.875 148.125 846.188 148.125ZM885.688 110C883.812 98.8125 880.312 73.9375 875.75 57.6875C868.438 66.875 866.312 77.3125 866.25 87C866.25 100.75 877.688 102.875 885.688 110Z" fill="white"/>
<path d="M150.123 164.304V166.128H134.907V180.192H148.203V182.016H134.907V198H132.747V164.304H150.123ZM167.616 164.304V198H165.456V164.304H167.616ZM209.23 198H207.07L187.294 167.856V198H185.134V164.352H187.294L207.07 194.4V164.352H209.23V198ZM254.446 174.24C253.486 171.712 251.886 169.696 249.646 168.192C247.438 166.688 244.814 165.936 241.774 165.936C239.118 165.936 236.718 166.56 234.574 167.808C232.43 169.056 230.734 170.832 229.486 173.136C228.238 175.44 227.614 178.128 227.614 181.2C227.614 184.272 228.238 186.96 229.486 189.264C230.734 191.568 232.43 193.344 234.574 194.592C236.718 195.808 239.118 196.416 241.774 196.416C244.334 196.416 246.654 195.84 248.734 194.688C250.814 193.536 252.478 191.904 253.726 189.792C254.974 187.648 255.662 185.152 255.79 182.304H240.766V180.48H257.998V181.92C257.902 185.056 257.15 187.872 255.742 190.368C254.334 192.864 252.414 194.816 249.982 196.224C247.55 197.632 244.814 198.336 241.774 198.336C238.67 198.336 235.87 197.616 233.374 196.176C230.878 194.704 228.926 192.672 227.518 190.08C226.11 187.456 225.406 184.496 225.406 181.2C225.406 177.872 226.11 174.912 227.518 172.32C228.926 169.696 230.878 167.664 233.374 166.224C235.87 164.752 238.67 164.016 241.774 164.016C245.39 164.016 248.51 164.928 251.134 166.752C253.79 168.544 255.726 171.04 256.942 174.24H254.446ZM276.291 166.128V180.192H289.731V182.016H276.291V196.176H291.171V198H274.131V164.304H291.171V166.128H276.291ZM325.501 198L316.861 183.648H316.669H309.469V198H307.309V164.304H316.573C320.317 164.304 323.117 165.184 324.973 166.944C326.861 168.704 327.805 171.04 327.805 173.952C327.805 176.544 327.069 178.688 325.597 180.384C324.157 182.048 322.045 183.072 319.261 183.456L328.093 198H325.501ZM309.469 181.824H316.669C319.645 181.824 321.869 181.104 323.341 179.664C324.813 178.224 325.549 176.32 325.549 173.952C325.549 168.8 322.557 166.224 316.573 166.224H309.469V181.824ZM357.832 179.04V180.912H339.784V179.04H357.832ZM378.732 196.176H391.26V198H376.572V164.304H378.732V196.176ZM407.926 164.304V198H405.766V164.304H407.926ZM424.1 181.2C424.1 177.872 424.788 174.912 426.164 172.32C427.572 169.696 429.492 167.648 431.924 166.176C434.388 164.704 437.14 163.968 440.18 163.968C444.02 163.968 447.252 164.864 449.876 166.656C452.5 168.448 454.42 170.96 455.636 174.192H453.14C452.18 171.632 450.58 169.616 448.34 168.144C446.132 166.64 443.412 165.888 440.18 165.888C437.588 165.888 435.236 166.512 433.124 167.76C431.012 168.976 429.348 170.752 428.132 173.088C426.916 175.392 426.308 178.096 426.308 181.2C426.308 184.272 426.916 186.96 428.132 189.264C429.348 191.536 431.012 193.296 433.124 194.544C435.236 195.792 437.588 196.416 440.18 196.416C443.412 196.416 446.132 195.68 448.34 194.208C450.58 192.704 452.18 190.672 453.14 188.112H455.636C454.42 191.344 452.5 193.856 449.876 195.648C447.252 197.44 444.02 198.336 440.18 198.336C437.14 198.336 434.388 197.616 431.924 196.176C429.492 194.704 427.572 192.672 426.164 190.08C424.788 187.456 424.1 184.496 424.1 181.2ZM489.645 198L474.141 182.112V198H471.981V164.304H474.141V180.336L489.645 164.304H492.429L476.013 181.2L492.477 198H489.645ZM509.241 164.304V198H507.081V164.304H509.241ZM550.855 198H548.695L528.919 167.856V198H526.759V164.352H528.919L548.695 194.4V164.352H550.855V198ZM596.071 174.24C595.111 171.712 593.511 169.696 591.271 168.192C589.063 166.688 586.439 165.936 583.399 165.936C580.743 165.936 578.343 166.56 576.199 167.808C574.055 169.056 572.359 170.832 571.111 173.136C569.863 175.44 569.239 178.128 569.239 181.2C569.239 184.272 569.863 186.96 571.111 189.264C572.359 191.568 574.055 193.344 576.199 194.592C578.343 195.808 580.743 196.416 583.399 196.416C585.959 196.416 588.279 195.84 590.359 194.688C592.439 193.536 594.103 191.904 595.351 189.792C596.599 187.648 597.287 185.152 597.415 182.304H582.391V180.48H599.623V181.92C599.527 185.056 598.775 187.872 597.367 190.368C595.959 192.864 594.039 194.816 591.607 196.224C589.175 197.632 586.439 198.336 583.399 198.336C580.295 198.336 577.495 197.616 574.999 196.176C572.503 194.704 570.551 192.672 569.143 190.08C567.735 187.456 567.031 184.496 567.031 181.2C567.031 177.872 567.735 174.912 569.143 172.32C570.551 169.696 572.503 167.664 574.999 166.224C577.495 164.752 580.295 164.016 583.399 164.016C587.015 164.016 590.135 164.928 592.759 166.752C595.415 168.544 597.351 171.04 598.567 174.24H596.071ZM666.599 174.24C665.639 171.712 664.039 169.696 661.799 168.192C659.591 166.688 656.967 165.936 653.927 165.936C651.271 165.936 648.871 166.56 646.727 167.808C644.583 169.056 642.887 170.832 641.639 173.136C640.391 175.44 639.767 178.128 639.767 181.2C639.767 184.272 640.391 186.96 641.639 189.264C642.887 191.568 644.583 193.344 646.727 194.592C648.871 195.808 651.271 196.416 653.927 196.416C656.487 196.416 658.807 195.84 660.887 194.688C662.967 193.536 664.631 191.904 665.879 189.792C667.127 187.648 667.815 185.152 667.943 182.304H652.919V180.48H670.151V181.92C670.055 185.056 669.303 187.872 667.895 190.368C666.487 192.864 664.567 194.816 662.135 196.224C659.703 197.632 656.967 198.336 653.927 198.336C650.823 198.336 648.023 197.616 645.527 196.176C643.031 194.704 641.079 192.672 639.671 190.08C638.263 187.456 637.559 184.496 637.559 181.2C637.559 177.872 638.263 174.912 639.671 172.32C641.079 169.696 643.031 167.664 645.527 166.224C648.023 164.752 650.823 164.016 653.927 164.016C657.543 164.016 660.663 164.928 663.287 166.752C665.943 168.544 667.879 171.04 669.095 174.24H666.599ZM701.308 198.384C698.204 198.384 695.404 197.664 692.908 196.224C690.412 194.752 688.46 192.704 687.052 190.08C685.644 187.456 684.94 184.496 684.94 181.2C684.94 177.872 685.644 174.912 687.052 172.32C688.46 169.696 690.412 167.664 692.908 166.224C695.404 164.752 698.204 164.016 701.308 164.016C704.412 164.016 707.212 164.752 709.708 166.224C712.204 167.664 714.156 169.696 715.564 172.32C716.972 174.912 717.676 177.872 717.676 181.2C717.676 184.496 716.972 187.456 715.564 190.08C714.156 192.704 712.204 194.752 709.708 196.224C707.212 197.664 704.412 198.384 701.308 198.384ZM701.308 196.464C703.964 196.464 706.364 195.84 708.508 194.592C710.652 193.344 712.332 191.568 713.548 189.264C714.796 186.96 715.42 184.272 715.42 181.2C715.42 178.096 714.796 175.392 713.548 173.088C712.332 170.784 710.652 169.008 708.508 167.76C706.364 166.512 703.964 165.888 701.308 165.888C698.652 165.888 696.252 166.512 694.108 167.76C691.964 169.008 690.268 170.784 689.02 173.088C687.772 175.392 687.148 178.096 687.148 181.2C687.148 184.272 687.772 186.96 689.02 189.264C690.268 191.568 691.964 193.344 694.108 194.592C696.252 195.84 698.652 196.464 701.308 196.464ZM748.83 198.384C745.726 198.384 742.926 197.664 740.43 196.224C737.934 194.752 735.982 192.704 734.574 190.08C733.166 187.456 732.462 184.496 732.462 181.2C732.462 177.872 733.166 174.912 734.574 172.32C735.982 169.696 737.934 167.664 740.43 166.224C742.926 164.752 745.726 164.016 748.83 164.016C751.934 164.016 754.734 164.752 757.23 166.224C759.726 167.664 761.678 169.696 763.086 172.32C764.494 174.912 765.198 177.872 765.198 181.2C765.198 184.496 764.494 187.456 763.086 190.08C761.678 192.704 759.726 194.752 757.23 196.224C754.734 197.664 751.934 198.384 748.83 198.384ZM748.83 196.464C751.486 196.464 753.886 195.84 756.03 194.592C758.174 193.344 759.854 191.568 761.07 189.264C762.318 186.96 762.942 184.272 762.942 181.2C762.942 178.096 762.318 175.392 761.07 173.088C759.854 170.784 758.174 169.008 756.03 167.76C753.886 166.512 751.486 165.888 748.83 165.888C746.174 165.888 743.774 166.512 741.63 167.76C739.486 169.008 737.79 170.784 736.542 173.088C735.294 175.392 734.67 178.096 734.67 181.2C734.67 184.272 735.294 186.96 736.542 189.264C737.79 191.568 739.486 193.344 741.63 194.592C743.774 195.84 746.174 196.464 748.83 196.464ZM790.784 164.304C796.48 164.304 800.864 165.792 803.936 168.768C807.04 171.744 808.592 175.888 808.592 181.2C808.592 186.512 807.04 190.64 803.936 193.584C800.864 196.528 796.48 198 790.784 198H781.328V164.304H790.784ZM790.784 196.176C795.872 196.176 799.744 194.864 802.4 192.24C805.056 189.584 806.384 185.904 806.384 181.2C806.384 176.464 805.056 172.768 802.4 170.112C799.744 167.456 795.872 166.128 790.784 166.128H783.488V196.176H790.784Z" fill="white"/>
</svg>
